<?xml version="1.0" standalone="no"?>
<!DOCTYPE svg PUBLIC "-//W3C//DTD SVG 20010904//EN"
 "http://www.w3.org/TR/2001/REC-SVG-20010904/DTD/svg10.dtd">
<svg version="1.0" xmlns="http://www.w3.org/2000/svg"
 width="1000.000000pt" height="1000.000000pt" viewBox="0 0 1000.000000 1000.000000"
 preserveAspectRatio="xMidYMid meet">
<metadata>
Created by potrace 1.14, written by Peter Selinger 2001-2017
</metadata>
<g transform="translate(0.000000,1000.000000) scale(0.100000,-0.100000)"
fill="#000000" stroke="none">
<path d="M4818 9515 c-2 -2 -60 -6 -129 -9 -70 -4 -137 -9 -150 -11 -13 -2
-46 -7 -74 -10 -127 -14 -141 -16 -248 -35 -348 -62 -769 -189 -1052 -320
-385 -177 -654 -339 -957 -577 -127 -99 -151 -120 -283 -243 -563 -523 -977
-1171 -1219 -1905 -88 -270 -171 -639 -192 -860 -3 -38 -8 -78 -10 -88 -27
-147 -24 -725 5 -962 6 -44 13 -98 15 -120 3 -22 7 -51 10 -65 3 -14 14 -79
26 -145 42 -240 134 -558 236 -819 296 -751 778 -1397 1424 -1909 552 -437
1281 -762 1990 -887 63 -11 124 -22 135 -24 11 -2 49 -7 85 -11 36 -4 79 -9
95 -11 211 -25 819 -25 951 0 10 2 48 7 84 11 36 3 101 13 145 20 105 18 121
21 220 41 102 20 365 91 482 130 1019 338 1859 1000 2438 1919 83 131 220 395
297 570 169 386 302 874 343 1260 4 33 8 71 11 85 24 154 24 757 -1 935 -9 66
-36 252 -41 285 -2 19 -9 58 -15 85 -6 28 -13 64 -16 80 -15 92 -92 369 -144
520 -201 589 -471 1059 -880 1530 -126 145 -349 367 -474 470 -33 27 -62 52
-65 55 -11 13 -221 170 -295 222 -524 363 -1164 623 -1810 732 -122 21 -166
27 -415 52 -62 6 -517 14 -522 9z m532 -48 c134 -12 433 -53 515 -71 11 -3 53
-12 93 -20 39 -9 106 -25 147 -36 41 -11 108 -29 149 -40 256 -69 623 -221
903 -373 180 -99 494 -302 555 -359 7 -7 39 -33 70 -56 170 -130 436 -385 609
-587 375 -436 660 -932 844 -1466 69 -201 144 -485 170 -639 3 -19 7 -46 10
-60 15 -79 23 -135 30 -210 3 -30 7 -64 10 -75 26 -124 26 -818 0 -950 -2 -11
-7 -47 -10 -80 -6 -61 -11 -95 -20 -150 -3 -16 -10 -56 -16 -88 -88 -519 -320
-1123 -601 -1567 -206 -326 -369 -530 -638 -801 -414 -415 -890 -737 -1435
-969 -197 -84 -558 -203 -714 -235 -109 -23 -273 -55 -301 -59 -19 -3 -66 -10
-105 -15 -38 -6 -95 -13 -125 -16 -30 -2 -93 -8 -140 -12 -167 -15 -708 -8
-831 11 -13 3 -51 7 -84 10 -33 3 -69 8 -80 10 -11 2 -40 7 -65 11 -25 4 -56
9 -70 12 -286 47 -666 160 -952 282 -558 237 -1018 548 -1448 980 -506 506
-862 1094 -1088 1791 -37 114 -95 322 -106 381 -2 13 -13 71 -24 129 -27 139
-33 179 -47 290 -3 25 -7 59 -9 76 -15 116 -21 262 -21 484 0 290 6 390 36
600 5 41 12 93 15 115 28 221 163 704 269 960 242 586 545 1042 985 1487 302
304 602 534 966 738 l101 57 71 -216 c214 -654 202 -615 185 -626 -428 -272
-712 -521 -994 -875 -154 -193 -279 -390 -394 -620 -93 -185 -199 -455 -241
-610 -51 -193 -94 -395 -110 -518 -3 -26 -7 -58 -10 -72 -2 -14 -6 -68 -9
-120 -4 -52 -8 -101 -11 -109 -2 -7 1 -20 7 -27 15 -19 39 0 39 30 0 40 41
171 80 253 108 231 323 438 551 530 155 63 268 83 439 79 168 -5 288 -34 433
-105 440 -217 673 -693 572 -1170 -46 -212 -123 -357 -279 -519 -130 -135
-335 -256 -491 -288 -11 -2 -49 -10 -85 -18 -66 -14 -288 -15 -360 -1 -243 45
-470 175 -631 361 -41 48 -104 144 -138 212 -35 69 -91 232 -91 264 0 10 -5
28 -11 39 -8 16 -13 18 -25 9 -7 -7 -12 -22 -9 -34 2 -11 7 -63 10 -115 3 -52
8 -97 9 -100 2 -3 7 -37 10 -75 3 -37 8 -71 10 -75 2 -3 7 -28 10 -56 4 -27 9
-57 11 -65 2 -8 7 -28 9 -45 24 -138 107 -416 181 -605 51 -132 180 -394 255
-520 384 -641 953 -1149 1620 -1448 279 -125 687 -248 915 -276 17 -2 57 -7
90 -11 33 -3 71 -9 85 -11 14 -2 61 -7 105 -10 44 -3 81 -7 83 -9 2 -1 -10
-22 -27 -46 -81 -122 -61 -273 50 -373 60 -54 124 -76 207 -72 73 5 120 24
174 75 61 56 90 118 93 200 3 76 -6 109 -47 170 -16 24 -28 45 -26 46 2 1 41
5 88 9 101 7 135 12 260 32 52 9 109 18 125 20 66 10 319 76 431 113 805 262
1489 792 1939 1502 95 148 245 442 304 592 137 350 225 724 247 1052 3 44 7
90 9 101 6 27 -18 50 -32 32 -5 -7 -17 -47 -26 -90 -61 -292 -298 -578 -590
-713 -123 -57 -231 -82 -387 -91 -227 -13 -447 48 -640 178 -82 55 -100 70
-167 139 -153 158 -248 344 -288 564 -14 79 -14 293 0 360 32 160 108 332 194
446 103 136 261 264 405 329 63 29 170 66 216 75 14 3 41 8 60 12 62 13 302 9
370 -6 309 -66 555 -239 717 -507 38 -62 97 -211 113 -284 19 -87 28 -104 45
-90 8 7 13 22 10 34 -2 11 -7 61 -10 110 -6 92 -7 105 -24 221 -95 633 -356
1238 -743 1719 -135 168 -298 340 -433 459 -22 20 -53 47 -70 62 -163 142
-463 342 -684 454 -118 60 -368 171 -384 171 -4 0 -26 -39 -51 -87 -110 -211
-300 -409 -520 -537 -104 -62 -289 -136 -376 -152 -8 -2 -31 -6 -50 -10 -58
-12 -63 -13 -125 -20 -334 -38 -700 63 -975 270 -59 44 -58 43 -116 97 -106
98 -201 223 -269 351 -25 48 -48 88 -51 88 -19 0 -221 -89 -361 -160 -163 -82
-173 -86 -179 -66 -8 29 -200 623 -234 726 l-28 85 101 50 c362 178 857 337
1212 389 22 4 65 11 95 16 30 5 84 12 120 16 36 3 74 8 85 10 10 2 64 6 120
10 55 3 101 7 103 9 4 4 525 -3 582 -8z m-1610 -1168 c73 -141 209 -312 331
-415 82 -69 91 -76 158 -119 139 -89 277 -147 461 -192 89 -22 132 -26 280
-29 96 -1 198 2 225 7 28 4 68 11 90 15 22 3 66 15 97 25 32 10 62 19 69 19
15 0 63 21 194 86 240 117 467 335 596 569 22 41 43 75 45 75 9 0 178 -71 244
-103 374 -178 711 -416 1000 -707 132 -133 146 -148 261 -290 233 -289 428
-628 554 -965 36 -96 120 -364 129 -409 2 -11 13 -61 24 -111 12 -49 23 -110
27 -135 6 -49 23 -150 31 -190 3 -14 -18 17 -46 69 -65 119 -116 188 -204 277
-168 170 -359 267 -611 311 -55 9 -263 11 -317 2 -198 -34 -361 -102 -510
-214 -262 -197 -421 -500 -433 -825 -17 -437 187 -788 600 -1035 14 -8 -8 -34
-142 -164 -276 -270 -563 -550 -730 -714 l-162 -160 -16 38 c-31 76 -131 212
-222 303 -52 50 -97 92 -102 92 -4 0 -21 11 -37 25 -16 14 -74 47 -129 74
-176 87 -325 120 -519 116 -125 -3 -154 -7 -244 -30 -40 -10 -54 -11 -57 -2
-2 7 -22 71 -45 142 -23 72 -50 155 -60 185 -10 30 -62 190 -115 355 -53 165
-103 318 -110 340 -8 22 -64 195 -125 385 -62 190 -134 413 -160 495 -43 134
-177 547 -337 1040 -30 94 -83 258 -118 365 -35 107 -114 350 -175 540 -61
190 -134 414 -162 498 -27 84 -48 158 -45 165 8 21 450 234 489 237 4 0 17
-18 28 -41z m-504 -385 c29 -87 100 -307 159 -489 58 -181 138 -427 176 -545
38 -118 85 -262 104 -320 110 -341 267 -829 275 -850 5 -14 33 -101 63 -195
123 -381 282 -872 342 -1055 35 -107 107 -330 160 -495 53 -165 103 -320 111
-344 8 -24 11 -47 7 -51 -4 -5 -41 -21 -80 -38 -214 -89 -456 -323 -543 -527
-12 -28 -28 -63 -36 -80 -17 -37 -52 -173 -61 -240 -10 -65 -10 -246 0 -310
44 -312 228 -598 496 -769 107 -69 257 -131 361 -151 67 -12 75 -13 90 -15 10
-1 9 -4 -5 -9 -23 -10 -73 -7 -280 14 -130 13 -370 61 -530 106 -677 187
-1283 568 -1740 1094 -39 44 -72 82 -75 85 -8 8 -92 118 -115 149 -373 524
-588 1064 -669 1681 l-6 45 31 -64 c149 -315 427 -539 759 -612 111 -25 288
-32 400 -16 262 36 527 188 692 395 103 130 170 261 207 408 31 119 32 130 36
254 8 232 -57 454 -189 650 -46 69 -56 80 -136 160 -151 151 -335 251 -550
297 -80 17 -292 23 -370 11 -25 -4 -61 -10 -80 -14 -60 -10 -212 -65 -282
-102 -147 -77 -305 -219 -398 -356 -18 -27 -53 -88 -77 -135 -26 -53 -41 -74
-38 -56 2 17 12 77 20 135 8 58 22 134 31 169 9 36 17 72 19 80 65 315 221
706 406 1017 61 103 171 269 213 321 216 271 417 478 626 644 142 113 399 290
414 286 6 -2 33 -75 62 -163z m5313 -3384 c-5 -36 -12 -83 -15 -105 -11 -75
-55 -280 -80 -369 -225 -804 -706 -1491 -1384 -1976 -218 -156 -403 -258 -705
-390 -138 -60 -416 -148 -585 -184 -131 -28 -150 -32 -247 -46 -128 -18 -135
-19 -218 -25 -44 -4 -96 -8 -116 -10 -20 -1 -43 1 -50 6 -8 5 -9 9 -4 9 24 1
146 30 201 48 269 88 506 293 633 548 41 83 85 204 95 264 4 19 9 53 13 75 4
22 7 99 7 170 -1 133 -16 229 -56 345 l-18 55 107 104 c142 137 474 462 746
729 168 165 222 212 235 207 26 -11 135 -46 157 -51 131 -26 179 -31 282 -29
137 3 167 7 287 41 297 84 559 306 689 585 17 37 32 67 34 66 1 -2 -2 -32 -8
-67z m-3368 -954 c170 -27 414 -147 534 -264 112 -109 161 -172 224 -294 81
-158 119 -310 119 -482 1 -468 -291 -868 -742 -1017 -34 -11 -72 -22 -86 -24
-14 -3 -47 -9 -75 -14 -53 -10 -289 -8 -340 3 -423 92 -736 382 -841 779 -25
97 -29 137 -28 287 2 178 29 294 104 446 58 117 105 183 198 278 159 162 389
279 597 303 28 3 52 8 55 10 5 5 236 -4 281 -11z m-143 -2153 c-15 -2 -42 -2
-60 0 -18 2 -6 4 27 4 33 0 48 -2 33 -4z m139 -71 c49 -48 66 -89 69 -164 3
-57 -1 -75 -24 -120 -120 -228 -459 -155 -468 101 -3 73 14 123 60 178 32 38
35 38 201 37 l130 -1 32 -31z"/>
<path d="M4352 7908 c-30 -30 1 -89 43 -82 21 3 45 30 45 50 0 35 -62 58 -88
32z"/>
<path d="M5575 7900 c-15 -17 -16 -24 -7 -45 6 -14 16 -26 22 -26 5 -1 16 -2
23 -3 19 -3 47 25 47 49 0 45 -52 61 -85 25z"/>
<path d="M4965 7744 c-22 -23 -15 -56 17 -73 24 -14 28 -14 47 3 25 23 27 49
5 70 -20 21 -48 20 -69 0z"/>
<path d="M3162 5608 c-20 -20 -14 -66 9 -79 27 -14 64 1 72 30 11 44 -49 81
-81 49z"/>
<path d="M7970 5271 c-41 -14 -68 -34 -107 -75 -62 -66 -84 -126 -78 -216 4
-75 33 -135 91 -190 143 -134 362 -91 456 90 32 62 32 174 -1 241 -65 136
-220 200 -361 150z m211 -46 c84 -44 131 -119 135 -216 3 -55 -1 -76 -22 -118
-90 -181 -339 -187 -442 -12 -23 39 -27 57 -27 122 0 67 4 81 30 124 34 55 94
102 146 116 49 12 141 4 180 -16z"/>
<path d="M3354 5025 c-15 -23 -15 -27 0 -50 28 -43 86 -26 86 25 0 51 -58 68
-86 25z"/>
<path d="M3168 4469 c-21 -12 -24 -59 -6 -77 19 -19 55 -14 72 9 16 23 12 47
-12 67 -19 14 -31 15 -54 1z"/>
</g>
</svg>
